<svg display="block" role="presentation" viewBox="0 0 48 23" xmlns="http://www.w3.org/2000/svg"><path d="M 6.37 0.029 L 9.124 0.029 L 9.382 0.287 L 14.891 18.879 C 15.103 19.929 15.505 20.79 16.096 21.461 L 12.911 21.547 L 12.997 21.289 L 13.169 20.256 L 10.759 12.251 C 8.482 12.805 6.704 13.924 5.423 15.608 L 3.357 19.051 L 3.013 20.945 L 3.357 21.461 L 0 21.547 L 0.603 20.773 L 6.456 1.836 L 6.628 0.631 Z M 8.177 3.816 L 5.251 12.94 L 5.423 13.112 C 6.685 11.849 8.235 10.931 10.071 10.358 Z M 17.387 0.029 L 19.625 0.029 L 19.711 0.115 L 19.711 20.428 L 20.228 21.461 L 17.129 21.547 L 17.473 20.773 L 17.473 1.75 L 16.01 2.094 L 15.752 1.32 Z M 29.782 0.029 C 30.083 -0.067 30.169 0.077 30.04 0.459 L 30.729 2.697 L 30.471 2.611 C 28.408 2.959 26.888 3.848 25.909 5.279 L 25.22 6.14 L 25.65 6.226 C 26.554 5.637 27.759 5.35 29.266 5.365 C 32.101 5.685 34.196 6.747 35.549 8.55 C 36.91 9.943 37.484 12.124 37.271 15.092 C 36.739 17.487 35.62 19.294 33.914 20.514 C 32.58 21.706 30.572 22.222 27.888 22.064 C 25.735 21.635 24.042 20.745 22.81 19.395 C 21.086 17.848 20.398 15.266 20.744 11.649 C 21.387 7.414 23.08 4.229 25.823 2.094 C 26.942 1.205 28.261 0.516 29.782 0.029 Z M 28.147 7.775 L 27.63 7.947 L 28.319 9.669 C 29.122 10.817 30.385 11.563 32.106 11.907 C 33.139 12.022 33.942 11.964 34.516 11.735 L 33.655 10.013 C 32.622 8.406 30.786 7.66 28.147 7.775 Z M 26.597 8.292 L 25.392 8.98 C 24.13 9.898 23.326 11.276 22.982 13.112 C 22.867 14.03 22.982 14.719 23.326 15.178 L 25.048 14.317 C 26.081 13.514 26.769 12.366 27.114 10.874 L 27.114 8.98 L 26.941 8.808 C 27.056 8.349 26.941 8.177 26.597 8.292 Z M 34.516 12.423 L 32.795 13.456 C 31.876 14.145 31.245 15.178 30.901 16.555 C 30.786 17.703 30.844 18.621 31.073 19.309 L 32.622 18.621 C 33.885 17.703 34.688 16.268 35.033 14.317 L 34.86 13.112 C 35.09 12.538 34.975 12.309 34.516 12.423 Z M 24.015 15.694 L 23.498 15.866 L 24.015 17.244 C 25.048 19.195 27.171 19.998 30.385 19.654 L 29.696 18.104 C 28.778 16.268 26.884 15.465 24.015 15.694 Z M 36.065 0 L 47.427 0.086 L 39.336 19.281 L 45.62 19.281 L 46.481 18.764 L 47.427 21.519 L 35.807 21.519 L 35.721 21.261 L 43.812 2.238 L 37.873 2.238 L 36.754 2.754 Z" fill="rgb(0, 0, 0)" height="22.091606157171842px" id="IqgvdlUKh" transform="translate(0.35 0.5)" width="47.42737160602792px"/></svg>
